<svg width="41" height="44" viewBox="0 0 41 44" fill="none" xmlns="http://www.w3.org/2000/svg">
<path d="M20.359 0C18.7501 0 17.4503 1.22891 17.4503 2.75V4.4C10.8148 5.67188 5.8154 11.2234 5.8154 17.875V20.0578C5.8154 23.9594 4.40649 27.7492 1.83409 30.7914L0.479723 32.3984C-0.0474813 33.0172 -0.147468 33.868 0.216121 34.5812C0.579711 35.2945 1.34325 35.75 2.1795 35.75H38.5384C39.3747 35.75 40.1382 35.2945 40.5018 34.5812C40.8654 33.868 40.7654 33.0172 40.2382 32.3984L38.8839 30.8C36.3115 27.7492 34.9026 23.9594 34.9026 20.0578V17.875C34.9026 11.2234 29.9032 5.67188 23.2677 4.4V2.75C23.2677 1.22891 21.9679 0 20.359 0ZM20.359 8.25C25.9855 8.25 30.5395 12.5555 30.5395 17.875V20.0578C30.5395 24.1742 31.803 28.1875 34.1481 31.625H6.56985C8.915 28.1875 10.1785 24.1742 10.1785 20.0578V17.875C10.1785 12.5555 14.7324 8.25 20.359 8.25ZM26.1764 38.5H20.359H14.5415C14.5415 39.9609 15.1506 41.3617 16.2413 42.393C17.3321 43.4242 18.8137 44 20.359 44C21.9042 44 23.3859 43.4242 24.4766 42.393C25.5674 41.3617 26.1764 39.9609 26.1764 38.5Z" fill="white"/>
</svg>
